STARTFONT 2.1
COMMENT $XConsortium: lubI10.bdf,v 1.9 94/04/02 16:00:55 gildea Exp $
COMMENT  (c) Copyright Bigelow & Holmes 1986, 1985. Lucida is a registered
COMMENT  trademark of Bigelow & Holmes. See LEGAL NOTICE file for terms 
COMMENT  of the license. 
COMMENT  
COMMENT  Translation to ISO8859-2 by Cub Soft;  Petr.Kolar@vslib.cz
COMMENT  
FONT -B&H-LucidaBright-Medium-I-Normal--10-100-75-75-P-57-ISO8859-2
SIZE 10 72 72
FONTBOUNDINGBOX 16 12 -4 -2
STARTPROPERTIES 20
COMMENT Begin LogicalFontDescription
FONTNAME_REGISTRY ""
FOUNDRY "B&H"
FAMILY_NAME "LucidaBright"
WEIGHT_NAME "Medium"
SLANT "I"
SETWIDTH_NAME "Normal"
ADD_STYLE_NAME ""
PIXEL_SIZE 10
POINT_SIZE 100
RESOLUTION_X 75
RESOLUTION_Y 75
SPACING "P"
AVERAGE_WIDTH 57
CHARSET_REGISTRY "ISO8859"
CHARSET_ENCODING "2"
COMMENT END LogicalFontDescription
FONT_ASCENT 9
FONT_DESCENT 3
DEFAULT_CHAR 0
COPYRIGHT "Copyright Bigelow & Holmes 1986, 1985., Copyright 1996 Cub Soft"
FACE_NAME "Lucida Bright Italic"
ENDPROPERTIES
CHARS 191
STARTCHAR space
ENCODING 32
SWIDTH 333 0
DWIDTH 3 0
BBX 1 1 0 0
BITMAP
00
ENDCHAR
STARTCHAR exclam
ENCODING 33
SWIDTH 265 0
DWIDTH 3 0
BBX 2 8 1 0
BITMAP
40
40
40
40
40
40
00
80
ENDCHAR
STARTCHAR quotedbl
ENCODING 34
SWIDTH 377 0
DWIDTH 4 0
BBX 3 3 2 5
BITMAP
e0
c0
c0
ENDCHAR
STARTCHAR numbersign
ENCODING 35
SWIDTH 608 0
DWIDTH 6 0
BBX 6 8 1 0
BITMAP
14
14
fc
30
30
fc
a0
a0
ENDCHAR
STARTCHAR dollar
ENCODING 36
SWIDTH 608 0
DWIDTH 6 0
BBX 4 9 2 -1
BITMAP
70
70
20
40
60
50
e0
c0
40
ENDCHAR
STARTCHAR percent
ENCODING 37
SWIDTH 759 0
DWIDTH 8 0
BBX 8 8 1 0
BITMAP
73
54
54
68
16
2a
4a
8e
ENDCHAR
STARTCHAR ampersand
ENCODING 38
SWIDTH 727 0
DWIDTH 7 0
BBX 7 8 1 0
BITMAP
18
24
24
78
96
94
8c
7e
ENDCHAR
STARTCHAR apostrophe
ENCODING 39
SWIDTH 265 0
DWIDTH 3 0
BBX 2 3 2 5
BITMAP
c0
40
c0
ENDCHAR
STARTCHAR parenleft
ENCODING 40
SWIDTH 310 0
DWIDTH 3 0
BBX 4 10 1 -2
BITMAP
30
40
40
80
80
80
80
80
80
80
ENDCHAR
STARTCHAR parenright
ENCODING 41
SWIDTH 310 0
DWIDTH 3 0
BBX 3 10 0 -2
BITMAP
20
20
20
20
20
20
20
20
40
80
ENDCHAR
STARTCHAR asterisk
ENCODING 42
SWIDTH 458 0
DWIDTH 5 0
BBX 4 4 1 4
BITMAP
20
f0
60
a0
ENDCHAR
STARTCHAR plus
ENCODING 43
SWIDTH 608 0
DWIDTH 6 0
BBX 6 7 1 0
BITMAP
10
10
10
fc
20
20
20
ENDCHAR
STARTCHAR comma
ENCODING 44
SWIDTH 265 0
DWIDTH 3 0
BBX 2 3 0 -2
BITMAP
c0
40
80
ENDCHAR
STARTCHAR minus
ENCODING 45
SWIDTH 608 0
DWIDTH 6 0
BBX 6 1 1 2
BITMAP
fc
ENDCHAR
STARTCHAR period
ENCODING 46
SWIDTH 265 0
DWIDTH 3 0
BBX 1 1 1 0
BITMAP
80
ENDCHAR
STARTCHAR slash
ENCODING 47
SWIDTH 458 0
DWIDTH 5 0
BBX 6 10 0 -2
BITMAP
04
08
08
10
10
20
20
40
80
80
ENDCHAR
STARTCHAR zero
ENCODING 48
SWIDTH 608 0
DWIDTH 6 0
BBX 5 8 1 0
BITMAP
38
48
48
88
88
88
90
60
ENDCHAR
STARTCHAR one
ENCODING 49
SWIDTH 608 0
DWIDTH 6 0
BBX 4 8 1 0
BITMAP
70
10
20
20
20
20
20
f0
ENDCHAR
STARTCHAR two
ENCODING 50
SWIDTH 608 0
DWIDTH 6 0
BBX 6 8 1 0
BITMAP
38
44
04
08
30
40
80
f8
ENDCHAR
STARTCHAR three
ENCODING 51
SWIDTH 608 0
DWIDTH 6 0
BBX 5 8 1 0
BITMAP
78
48
08
70
10
08
90
e0
ENDCHAR
STARTCHAR four
ENCODING 52
SWIDTH 608 0
DWIDTH 6 0
BBX 5 8 1 0
BITMAP
18
28
48
90
f8
10
10
30
ENDCHAR
STARTCHAR five
ENCODING 53
SWIDTH 608 0
DWIDTH 6 0
BBX 5 8 1 0
BITMAP
78
40
40
70
10
08
90
e0
ENDCHAR
STARTCHAR six
ENCODING 54
SWIDTH 608 0
DWIDTH 6 0
BBX 5 8 1 0
BITMAP
38
68
40
f0
88
88
90
60
ENDCHAR
STARTCHAR seven
ENCODING 55
SWIDTH 608 0
DWIDTH 6 0
BBX 6 8 1 0
BITMAP
7c
04
08
30
20
40
40
80
ENDCHAR
STARTCHAR eight
ENCODING 56
SWIDTH 608 0
DWIDTH 6 0
BBX 5 8 1 0
BITMAP
38
48
48
78
98
88
98
70
ENDCHAR
STARTCHAR nine
ENCODING 57
SWIDTH 608 0
DWIDTH 6 0
BBX 5 8 1 0
BITMAP
38
48
c8
48
78
08
90
e0
ENDCHAR
STARTCHAR colon
ENCODING 58
SWIDTH 265 0
DWIDTH 3 0
BBX 2 5 1 0
BITMAP
40
00
00
00
80
ENDCHAR
STARTCHAR semicolon
ENCODING 59
SWIDTH 265 0
DWIDTH 3 0
BBX 3 7 0 -2
BITMAP
60
00
00
00
c0
40
80
ENDCHAR
STARTCHAR less
ENCODING 60
SWIDTH 608 0
DWIDTH 6 0
BBX 6 7 1 0
BITMAP
0c
08
30
c0
60
10
08
ENDCHAR
STARTCHAR equal
ENCODING 61
SWIDTH 608 0
DWIDTH 6 0
BBX 6 3 1 1
BITMAP
fc
00
fc
ENDCHAR
STARTCHAR greater
ENCODING 62
SWIDTH 608 0
DWIDTH 6 0
BBX 6 7 0 0
BITMAP
40
30
08
04
38
20
c0
ENDCHAR
STARTCHAR question
ENCODING 63
SWIDTH 471 0
DWIDTH 5 0
BBX 4 8 1 0
BITMAP
e0
90
10
20
40
80
00
80
ENDCHAR
STARTCHAR at
ENCODING 64
SWIDTH 861 0
DWIDTH 9 0
BBX 8 8 1 0
BITMAP
1e
61
5d
a5
ad
b6
80
78
ENDCHAR
STARTCHAR A
ENCODING 65
SWIDTH 747 0
DWIDTH 7 0
BBX 7 8 0 0
BITMAP
08
18
14
24
7c
84
84
ce
ENDCHAR
STARTCHAR B
ENCODING 66
SWIDTH 606 0
DWIDTH 6 0
BBX 6 8 0 0
BITMAP
7c
24
24
38
48
44
48
f8
ENDCHAR
STARTCHAR C
ENCODING 67
SWIDTH 714 0
DWIDTH 7 0
BBX 7 8 1 0
BITMAP
1e
62
40
80
80
80
c0
7c
ENDCHAR
STARTCHAR D
ENCODING 68
SWIDTH 770 0
DWIDTH 8 0
BBX 8 8 0 0
BITMAP
7e
23
21
21
21
42
46
fc
ENDCHAR
STARTCHAR E
ENCODING 69
SWIDTH 569 0
DWIDTH 6 0
BBX 6 8 0 0
BITMAP
7c
24
28
38
48
40
48
f8
ENDCHAR
STARTCHAR F
ENCODING 70
SWIDTH 551 0
DWIDTH 5 0
BBX 6 8 0 0
BITMAP
7c
24
28
78
48
40
40
e0
ENDCHAR
STARTCHAR G
ENCODING 71
SWIDTH 756 0
DWIDTH 8 0
BBX 7 8 1 0
BITMAP
1e
62
40
80
8e
84
c4
7c
ENDCHAR
STARTCHAR H
ENCODING 72
SWIDTH 776 0
DWIDTH 8 0
BBX 9 8 0 0
BITMAP
7380
2100
2300
3e00
6200
4200
4200
e700
ENDCHAR
STARTCHAR I
ENCODING 73
SWIDTH 325 0
DWIDTH 3 0
BBX 4 8 0 0
BITMAP
70
20
20
20
40
40
40
e0
ENDCHAR
STARTCHAR J
ENCODING 74
SWIDTH 422 0
DWIDTH 4 0
BBX 6 10 0 -2
BITMAP
1c
08
08
10
10
10
10
10
a0
e0
ENDCHAR
STARTCHAR K
ENCODING 75
SWIDTH 698 0
DWIDTH 7 0
BBX 8 8 0 0
BITMAP
7b
22
2c
38
30
48
44
ee
ENDCHAR
STARTCHAR L
ENCODING 76
SWIDTH 572 0
DWIDTH 6 0
BBX 6 8 0 0
BITMAP
78
20
20
20
20
40
44
fc
ENDCHAR
STARTCHAR M
ENCODING 77
SWIDTH 865 0
DWIDTH 9 0
BBX 10 8 0 0
BITMAP
61c0
3180
3380
5300
5500
4900
4900
c380
ENDCHAR
STARTCHAR N
ENCODING 78
SWIDTH 762 0
DWIDTH 8 0
BBX 9 8 0 0
BITMAP
6380
3100
5200
4a00
4a00
4600
4600
c400
ENDCHAR
STARTCHAR O
ENCODING 79
SWIDTH 783 0
DWIDTH 8 0
BBX 7 8 1 0
BITMAP
1c
66
42
82
82
84
cc
70
ENDCHAR
STARTCHAR P
ENCODING 80
SWIDTH 579 0
DWIDTH 6 0
BBX 6 8 0 0
BITMAP
7c
24
24
2c
78
40
40
e0
ENDCHAR
STARTCHAR Q
ENCODING 81
SWIDTH 788 0
DWIDTH 8 0
BBX 8 10 1 -2
BITMAP
1c
66
42
82
82
84
cc
70
08
07
ENDCHAR
STARTCHAR R
ENCODING 82
SWIDTH 686 0
DWIDTH 7 0
BBX 7 8 0 0
BITMAP
7e
26
22
24
38
68
44
e6
ENDCHAR
STARTCHAR S
ENCODING 83
SWIDTH 549 0
DWIDTH 5 0
BBX 5 8 1 0
BITMAP
38
48
40
20
10
10
90
e0
ENDCHAR
STARTCHAR T
ENCODING 84
SWIDTH 663 0
DWIDTH 7 0
BBX 6 8 2 0
BITMAP
fc
a4
20
20
20
20
60
e0
ENDCHAR
STARTCHAR U
ENCODING 85
SWIDTH 727 0
DWIDTH 7 0
BBX 7 8 2 0
BITMAP
e6
44
44
84
84
84
88
70
ENDCHAR
STARTCHAR V
ENCODING 86
SWIDTH 656 0
DWIDTH 7 0
BBX 7 8 1 0
BITMAP
e6
46
44
48
48
50
30
20
ENDCHAR
STARTCHAR W
ENCODING 87
SWIDTH 878 0
DWIDTH 9 0
BBX 9 8 1 0
BITMAP
e980
4900
5900
5a00
6a00
6c00
4c00
4800
ENDCHAR
STARTCHAR X
ENCODING 88
SWIDTH 624 0
DWIDTH 6 0
BBX 8 8 0 0
BITMAP
33
32
14
18
18
2c
44
ce
ENDCHAR
STARTCHAR Y
ENCODING 89
SWIDTH 663 0
DWIDTH 7 0
BBX 7 8 1 0
BITMAP
e6
44
48
30
30
20
20
70
ENDCHAR
STARTCHAR Z
ENCODING 90
SWIDTH 633 0
DWIDTH 6 0
BBX 6 8 1 0
BITMAP
7c
48
08
10
20
40
48
f8
ENDCHAR
STARTCHAR bracketleft
ENCODING 91
SWIDTH 310 0
DWIDTH 3 0
BBX 4 10 0 -2
BITMAP
30
20
40
40
40
40
40
80
80
c0
ENDCHAR
STARTCHAR backslash
ENCODING 92
SWIDTH 458 0
DWIDTH 5 0
BBX 3 10 1 -2
BITMAP
80
80
40
40
40
40
40
40
20
20
ENDCHAR
STARTCHAR bracketright
ENCODING 93
SWIDTH 310 0
DWIDTH 3 0
BBX 4 10 0 -2
BITMAP
30
10
10
20
20
20
20
20
40
c0
ENDCHAR
STARTCHAR asciicircum
ENCODING 94
SWIDTH 608 0
DWIDTH 6 0
BBX 6 7 0 1
BITMAP
08
18
28
28
44
44
84
ENDCHAR
STARTCHAR underscore
ENCODING 95
SWIDTH 500 0
DWIDTH 5 0
BBX 4 1 1 -1
BITMAP
f0
ENDCHAR
STARTCHAR grave
ENCODING 96
SWIDTH 560 0
DWIDTH 6 0
BBX 2 1 3 7
BITMAP
c0
ENDCHAR
STARTCHAR a
ENCODING 97
SWIDTH 608 0
DWIDTH 6 0
BBX 5 5 1 0
BITMAP
38
48
88
90
f8
ENDCHAR
STARTCHAR b
ENCODING 98
SWIDTH 596 0
DWIDTH 6 0
BBX 5 8 1 0
BITMAP
40
40
40
78
68
c8
90
e0
ENDCHAR
STARTCHAR c
ENCODING 99
SWIDTH 487 0
DWIDTH 5 0
BBX 5 5 1 0
BITMAP
38
50
80
80
f0
ENDCHAR
STARTCHAR d
ENCODING 100
SWIDTH 608 0
DWIDTH 6 0
BBX 6 8 1 0
BITMAP
0c
04
08
38
48
88
b8
f8
ENDCHAR
STARTCHAR e
ENCODING 101
SWIDTH 518 0
DWIDTH 5 0
BBX 4 5 1 0
BITMAP
30
50
e0
90
f0
ENDCHAR
STARTCHAR f
ENCODING 102
SWIDTH 380 0
DWIDTH 4 0
BBX 5 10 1 -2
BITMAP
18
28
20
70
40
40
40
40
80
80
ENDCHAR
STARTCHAR g
ENCODING 103
SWIDTH 602 0
DWIDTH 6 0
BBX 6 7 0 -2
BITMAP
3c
44
48
98
68
88
f0
ENDCHAR
STARTCHAR h
ENCODING 104
SWIDTH 631 0
DWIDTH 6 0
BBX 5 8 1 0
BITMAP
40
40
40
58
68
c8
90
98
ENDCHAR
STARTCHAR i
ENCODING 105
SWIDTH 289 0
DWIDTH 3 0
BBX 2 8 1 0
BITMAP
40
00
00
c0
80
80
80
c0
ENDCHAR
STARTCHAR j
ENCODING 106
SWIDTH 343 0
DWIDTH 3 0
BBX 5 10 0 -2
BITMAP
08
00
00
18
10
10
10
10
a0
c0
ENDCHAR
STARTCHAR k
ENCODING 107
SWIDTH 560 0
DWIDTH 6 0
BBX 5 8 1 0
BITMAP
40
40
40
58
60
60
b0
98
ENDCHAR
STARTCHAR l
ENCODING 108
SWIDTH 289 0
DWIDTH 3 0
BBX 3 8 1 0
BITMAP
60
20
40
40
40
40
80
c0
ENDCHAR
STARTCHAR m
ENCODING 109
SWIDTH 944 0
DWIDTH 9 0
BBX 8 5 1 0
BITMAP
ff
6d
49
9a
93
ENDCHAR
STARTCHAR n
ENCODING 110
SWIDTH 631 0
DWIDTH 6 0
BBX 5 5 1 0
BITMAP
d8
68
48
90
98
ENDCHAR
STARTCHAR o
ENCODING 111
SWIDTH 560 0
DWIDTH 6 0
BBX 5 5 1 0
BITMAP
30
48
88
90
e0
ENDCHAR
STARTCHAR p
ENCODING 112
SWIDTH 608 0
DWIDTH 6 0
BBX 6 7 1 -2
BITMAP
7c
f4
64
48
70
80
80
ENDCHAR
STARTCHAR q
ENCODING 113
SWIDTH 599 0
DWIDTH 6 0
BBX 5 7 1 -2
BITMAP
38
48
88
90
f0
10
10
ENDCHAR
STARTCHAR r
ENCODING 114
SWIDTH 470 0
DWIDTH 5 0
BBX 5 5 1 0
BITMAP
d8
68
40
c0
80
ENDCHAR
STARTCHAR s
ENCODING 115
SWIDTH 440 0
DWIDTH 4 0
BBX 4 5 1 0
BITMAP
70
50
60
a0
e0
ENDCHAR
STARTCHAR t
ENCODING 116
SWIDTH 355 0
DWIDTH 4 0
BBX 3 8 1 0
BITMAP
40
40
40
e0
40
80
80
c0
ENDCHAR
STARTCHAR u
ENCODING 117
SWIDTH 630 0
DWIDTH 6 0
BBX 5 5 1 0
BITMAP
d8
48
98
b0
f8
ENDCHAR
STARTCHAR v
ENCODING 118
SWIDTH 558 0
DWIDTH 6 0
BBX 6 5 1 0
BITMAP
cc
48
28
30
20
ENDCHAR
STARTCHAR w
ENCODING 119
SWIDTH 805 0
DWIDTH 8 0
BBX 8 5 1 0
BITMAP
c9
59
5a
6c
6c
ENDCHAR
STARTCHAR x
ENCODING 120
SWIDTH 510 0
DWIDTH 5 0
BBX 5 5 0 0
BITMAP
c8
70
20
d0
98
ENDCHAR
STARTCHAR y
ENCODING 121
SWIDTH 558 0
DWIDTH 6 0
BBX 6 7 0 -2
BITMAP
44
24
2c
38
20
20
c0
ENDCHAR
STARTCHAR z
ENCODING 122
SWIDTH 536 0
DWIDTH 5 0
BBX 5 5 1 0
BITMAP
78
50
20
50
f0
ENDCHAR
STARTCHAR braceleft
ENCODING 123
SWIDTH 337 0
DWIDTH 3 0
BBX 3 10 1 -2
BITMAP
20
40
40
40
40
80
40
80
80
c0
ENDCHAR
STARTCHAR bar
ENCODING 124
SWIDTH 241 0
DWIDTH 2 0
BBX 2 10 1 -2
BITMAP
40
40
40
40
80
80
80
80
80
80
ENDCHAR
STARTCHAR braceright
ENCODING 125
SWIDTH 337 0
DWIDTH 3 0
BBX 3 10 1 -2
BITMAP
20
20
20
20
20
40
40
40
40
c0
ENDCHAR
STARTCHAR asciitilde
ENCODING 126
SWIDTH 608 0
DWIDTH 6 0
BBX 8 2 2 2
BITMAP
71
8e
ENDCHAR
STARTCHAR nobreakspace
ENCODING 160
SWIDTH 333 0
DWIDTH 3 0
BBX 1 1 0 0
BITMAP
00
ENDCHAR
STARTCHAR Aogonek
ENCODING 161
SWIDTH 747 0
DWIDTH 7 0
BBX 7 9 0 -1
BITMAP
08
18
14
24
7c
84
84
ce
18
ENDCHAR
STARTCHAR breve
ENCODING 162
SWIDTH 560 0
DWIDTH 6 0
BBX 3 1 3 7
BITMAP
e0
ENDCHAR
STARTCHAR Lstroke
ENCODING 163
SWIDTH 572 0
DWIDTH 6 0
BBX 5 8 0 0
BITMAP
70
20
20
30
c0
40
48
f8
ENDCHAR
STARTCHAR currency
ENCODING 164
SWIDTH 608 0
DWIDTH 6 0
BBX 7 8 0 0
BITMAP
42
7c
74
68
48
48
78
84
ENDCHAR
STARTCHAR Lcaron
ENCODING 165
SWIDTH 800 0
DWIDTH 8 0
BBX 8 9 0 0
BITMAP
03
79
23
20
20
20
40
44
fc
ENDCHAR
STARTCHAR Sacute
ENCODING 166
SWIDTH 549 0
DWIDTH 5 0
BBX 5 10 1 0
BITMAP
30
00
38
48
40
20
10
10
90
e0
ENDCHAR
STARTCHAR section
ENCODING 167
SWIDTH 608 0
DWIDTH 6 0
BBX 4 10 2 -2
BITMAP
70
50
40
60
b0
90
60
20
a0
e0
ENDCHAR
STARTCHAR diaeresis
ENCODING 168
SWIDTH 560 0
DWIDTH 6 0
BBX 3 1 3 7
BITMAP
a0
ENDCHAR
STARTCHAR Scaron
ENCODING 169
SWIDTH 549 0
DWIDTH 5 0
BBX 5 10 1 0
BITMAP
70
00
38
48
40
20
10
10
90
e0
ENDCHAR
STARTCHAR Scedilla
ENCODING 170
SWIDTH 549 0
DWIDTH 5 0
BBX 5 10 1 -2
BITMAP
38
48
40
20
10
10
90
e0
10
30
ENDCHAR
STARTCHAR Tcaron
ENCODING 171
SWIDTH 663 0
DWIDTH 7 0
BBX 6 10 2 0
BITMAP
70
00
fc
a4
20
20
20
20
60
e0
ENDCHAR
STARTCHAR Zacute
ENCODING 172
SWIDTH 633 0
DWIDTH 6 0
BBX 6 10 1 0
BITMAP
18
00
7c
48
08
10
20
40
48
f8
ENDCHAR
STARTCHAR hyphen
ENCODING 173
SWIDTH 313 0
DWIDTH 3 0
BBX 2 1 1 2
BITMAP
c0
ENDCHAR
STARTCHAR Zcaron
ENCODING 174
SWIDTH 633 0
DWIDTH 6 0
BBX 6 10 1 0
BITMAP
38
00
7c
48
08
10
20
40
48
f8
ENDCHAR
STARTCHAR Zabovedot
ENCODING 175
SWIDTH 633 0
DWIDTH 6 0
BBX 6 10 1 0
BITMAP
10
00
7c
48
08
10
20
40
48
f8
ENDCHAR
STARTCHAR degree
ENCODING 176
SWIDTH 277 0
DWIDTH 3 0
BBX 2 3 2 5
BITMAP
80
c0
80
ENDCHAR
STARTCHAR aogonek
ENCODING 177
SWIDTH 608 0
DWIDTH 6 0
BBX 5 6 1 -1
BITMAP
38
48
88
90
f8
30
ENDCHAR
STARTCHAR ogonek
ENCODING 178
SWIDTH 560 0
DWIDTH 6 0
BBX 2 1 1 -2
BITMAP
c0
ENDCHAR
STARTCHAR lstroke
ENCODING 179
SWIDTH 289 0
DWIDTH 3 0
BBX 4 8 2 0
BITMAP
30
20
20
70
a0
20
20
60
ENDCHAR
STARTCHAR acute
ENCODING 180
SWIDTH 560 0
DWIDTH 6 0
BBX 2 1 4 7
BITMAP
c0
ENDCHAR
STARTCHAR lcaron
ENCODING 181
SWIDTH 600 0
DWIDTH 6 0
BBX 6 9 1 0
BITMAP
0c
64
2c
40
40
40
40
80
c0
ENDCHAR
STARTCHAR sacute
ENCODING 182
SWIDTH 440 0
DWIDTH 4 0
BBX 4 7 1 0
BITMAP
30
00
70
50
60
a0
e0
ENDCHAR
STARTCHAR caron
ENCODING 183
SWIDTH 560 0
DWIDTH 6 0
BBX 3 1 3 7
BITMAP
e0
ENDCHAR
STARTCHAR cedilla
ENCODING 184
SWIDTH 560 0
DWIDTH 6 0
BBX 2 2 1 -2
BITMAP
40
c0
ENDCHAR
STARTCHAR scaron
ENCODING 185
SWIDTH 440 0
DWIDTH 4 0
BBX 4 7 1 0
BITMAP
70
00
70
50
60
a0
e0
ENDCHAR
STARTCHAR scedilla
ENCODING 186
SWIDTH 440 0
DWIDTH 4 0
BBX 4 7 1 -2
BITMAP
70
50
60
a0
e0
20
60
ENDCHAR
STARTCHAR tcaron
ENCODING 187
SWIDTH 600 0
DWIDTH 6 0
BBX 5 9 1 0
BITMAP
18
48
58
40
e0
40
80
80
c0
ENDCHAR
STARTCHAR zacute
ENCODING 188
SWIDTH 536 0
DWIDTH 5 0
BBX 5 7 1 0
BITMAP
30
00
78
50
20
50
f0
ENDCHAR
STARTCHAR doubleacute
ENCODING 189
SWIDTH 560 0
DWIDTH 6 0
BBX 3 1 3 7
BITMAP
e0
ENDCHAR
STARTCHAR zcaron
ENCODING 190
SWIDTH 536 0
DWIDTH 5 0
BBX 5 7 1 0
BITMAP
70
00
78
50
20
50
f0
ENDCHAR
STARTCHAR zabovedot
ENCODING 191
SWIDTH 536 0
DWIDTH 5 0
BBX 5 7 1 0
BITMAP
20
00
78
50
20
50
f0
ENDCHAR
STARTCHAR Racute
ENCODING 192
SWIDTH 686 0
DWIDTH 7 0
BBX 7 10 0 0
BITMAP
18
00
7e
26
22
24
38
68
44
e6
ENDCHAR
STARTCHAR Aacute
ENCODING 193
SWIDTH 747 0
DWIDTH 7 0
BBX 7 9 0 0
BITMAP
06
08
18
14
24
7c
84
84
ce
ENDCHAR
STARTCHAR Acircumflex
ENCODING 194
SWIDTH 747 0
DWIDTH 7 0
BBX 7 9 0 0
BITMAP
0e
08
18
14
24
7c
84
84
ce
ENDCHAR
STARTCHAR Abreve
ENCODING 195
SWIDTH 747 0
DWIDTH 7 0
BBX 7 10 0 0
BITMAP
38
00
08
18
14
24
7c
84
84
ce
ENDCHAR
STARTCHAR Adiaeresis
ENCODING 196
SWIDTH 747 0
DWIDTH 7 0
BBX 7 9 0 0
BITMAP
0a
08
18
14
24
7c
84
84
ce
ENDCHAR
STARTCHAR Lacute
ENCODING 197
SWIDTH 572 0
DWIDTH 6 0
BBX 6 10 0 0
BITMAP
30
00
78
20
20
20
20
40
44
fc
ENDCHAR
STARTCHAR Cacute
ENCODING 198
SWIDTH 714 0
DWIDTH 7 0
BBX 7 10 1 0
BITMAP
18
00
1e
62
40
80
80
80
c0
7c
ENDCHAR
STARTCHAR Ccedilla
ENCODING 199
SWIDTH 714 0
DWIDTH 7 0
BBX 7 10 1 -2
BITMAP
1e
62
40
80
80
80
c0
7c
20
60
ENDCHAR
STARTCHAR Ccaron
ENCODING 200
SWIDTH 714 0
DWIDTH 7 0
BBX 7 10 1 0
BITMAP
38
00
1e
62
40
80
80
80
c0
7c
ENDCHAR
STARTCHAR Eacute
ENCODING 201
SWIDTH 569 0
DWIDTH 6 0
BBX 6 9 0 0
BITMAP
08
7c
24
28
38
48
40
48
f8
ENDCHAR
STARTCHAR Eogonek
ENCODING 202
SWIDTH 569 0
DWIDTH 6 0
BBX 6 9 0 -1
BITMAP
7c
24
28
38
48
40
48
f8
30
ENDCHAR
STARTCHAR Ediaeresis
ENCODING 203
SWIDTH 569 0
DWIDTH 6 0
BBX 6 9 0 0
BITMAP
14
7c
24
28
38
48
40
48
f8
ENDCHAR
STARTCHAR Ecaron
ENCODING 204
SWIDTH 569 0
DWIDTH 6 0
BBX 6 10 0 0
BITMAP
38
00
7c
24
28
38
48
40
48
f8
ENDCHAR
STARTCHAR Iacute
ENCODING 205
SWIDTH 325 0
DWIDTH 3 0
BBX 4 9 0 0
BITMAP
20
70
20
20
20
40
40
40
e0
ENDCHAR
STARTCHAR Icircumflex
ENCODING 206
SWIDTH 325 0
DWIDTH 3 0
BBX 4 9 0 0
BITMAP
50
70
20
20
20
40
40
40
e0
ENDCHAR
STARTCHAR Dcaron
ENCODING 207
SWIDTH 770 0
DWIDTH 8 0
BBX 8 10 0 0
BITMAP
1c
00
7e
23
21
21
21
42
46
fc
ENDCHAR
STARTCHAR Dstroke
ENCODING 208
SWIDTH 770 0
DWIDTH 8 0
BBX 8 8 0 0
BITMAP
7e
23
21
79
21
42
46
fc
ENDCHAR
STARTCHAR Nacute
ENCODING 209
SWIDTH 762 0
DWIDTH 8 0
BBX 9 10 0 0
BITMAP
0c00
0000
6380
3100
5200
4a00
4a00
4600
4600
c400
ENDCHAR
STARTCHAR Ncaron
ENCODING 210
SWIDTH 762 0
DWIDTH 8 0
BBX 9 10 0 0
BITMAP
1c00
0000
6380
3100
5200
4a00
4a00
4600
4600
c400
ENDCHAR
STARTCHAR Oacute
ENCODING 211
SWIDTH 783 0
DWIDTH 8 0
BBX 7 9 1 0
BITMAP
08
1c
66
42
82
82
84
cc
70
ENDCHAR
STARTCHAR Ocircumflex
ENCODING 212
SWIDTH 783 0
DWIDTH 8 0
BBX 7 9 1 0
BITMAP
14
1c
66
42
82
82
84
cc
70
ENDCHAR
STARTCHAR Odoubleacute
ENCODING 213
SWIDTH 783 0
DWIDTH 8 0
BBX 7 10 1 0
BITMAP
38
00
1c
66
42
82
82
84
cc
70
ENDCHAR
STARTCHAR Odiaeresis
ENCODING 214
SWIDTH 783 0
DWIDTH 8 0
BBX 7 9 1 0
BITMAP
14
1c
66
42
82
82
84
cc
70
ENDCHAR
STARTCHAR multiply
ENCODING 215
SWIDTH 608 0
DWIDTH 6 0
BBX 7 7 0 0
BITMAP
42
64
28
10
28
48
84
ENDCHAR
STARTCHAR Rcaron
ENCODING 216
SWIDTH 686 0
DWIDTH 7 0
BBX 7 10 0 0
BITMAP
38
00
7e
26
22
24
38
68
44
e6
ENDCHAR
STARTCHAR Uring
ENCODING 217
SWIDTH 727 0
DWIDTH 7 0
BBX 7 11 2 0
BITMAP
18
18
00
e6
44
44
84
84
84
88
70
ENDCHAR
STARTCHAR Uacute
ENCODING 218
SWIDTH 727 0
DWIDTH 7 0
BBX 7 9 2 0
BITMAP
18
e6
44
44
84
84
84
88
70
ENDCHAR
STARTCHAR Udoubleacute
ENCODING 219
SWIDTH 727 0
DWIDTH 7 0
BBX 7 10 2 0
BITMAP
38
00
e6
44
44
84
84
84
88
70
ENDCHAR
STARTCHAR Udiaeresis
ENCODING 220
SWIDTH 727 0
DWIDTH 7 0
BBX 7 9 2 0
BITMAP
28
e6
44
44
84
84
84
88
70
ENDCHAR
STARTCHAR Yacute
ENCODING 221
SWIDTH 663 0
DWIDTH 7 0
BBX 7 9 1 0
BITMAP
18
e6
44
48
30
30
20
20
70
ENDCHAR
STARTCHAR Tcedilla
ENCODING 222
SWIDTH 663 0
DWIDTH 7 0
BBX 6 10 2 -2
BITMAP
fc
a4
20
20
20
20
60
e0
10
30
ENDCHAR
STARTCHAR ssharp
ENCODING 223
SWIDTH 603 0
DWIDTH 6 0
BBX 5 10 1 -2
BITMAP
38
28
78
50
50
48
68
b8
80
80
ENDCHAR
STARTCHAR racute
ENCODING 224
SWIDTH 470 0
DWIDTH 5 0
BBX 5 7 1 0
BITMAP
30
00
d8
68
40
c0
80
ENDCHAR
STARTCHAR aacute
ENCODING 225
SWIDTH 608 0
DWIDTH 6 0
BBX 5 6 1 0
BITMAP
10
38
48
88
90
f8
ENDCHAR
STARTCHAR acircumflex
ENCODING 226
SWIDTH 608 0
DWIDTH 6 0
BBX 5 6 1 0
BITMAP
28
38
48
88
90
f8
ENDCHAR
STARTCHAR abreve
ENCODING 227
SWIDTH 608 0
DWIDTH 6 0
BBX 5 7 1 0
BITMAP
70
00
38
48
88
90
f8
ENDCHAR
STARTCHAR adiaeresis
ENCODING 228
SWIDTH 608 0
DWIDTH 6 0
BBX 5 6 1 0
BITMAP
28
38
48
88
90
f8
ENDCHAR
STARTCHAR lacute
ENCODING 229
SWIDTH 289 0
DWIDTH 3 0
BBX 3 10 1 0
BITMAP
60
00
60
20
40
40
40
40
80
c0
ENDCHAR
STARTCHAR cacute
ENCODING 230
SWIDTH 487 0
DWIDTH 5 0
BBX 5 7 1 0
BITMAP
30
00
38
50
80
80
f0
ENDCHAR
STARTCHAR ccedilla
ENCODING 231
SWIDTH 487 0
DWIDTH 5 0
BBX 5 7 1 -2
BITMAP
38
50
80
80
f0
40
c0
ENDCHAR
STARTCHAR ccaron
ENCODING 232
SWIDTH 487 0
DWIDTH 5 0
BBX 5 7 1 0
BITMAP
70
00
38
50
80
80
f0
ENDCHAR
STARTCHAR eacute
ENCODING 233
SWIDTH 518 0
DWIDTH 5 0
BBX 5 6 1 0
BITMAP
18
30
50
e0
90
f0
ENDCHAR
STARTCHAR eogonek
ENCODING 234
SWIDTH 518 0
DWIDTH 5 0
BBX 4 6 1 -1
BITMAP
30
50
e0
90
f0
60
ENDCHAR
STARTCHAR ediaeresis
ENCODING 235
SWIDTH 518 0
DWIDTH 5 0
BBX 5 6 1 0
BITMAP
28
30
50
e0
90
f0
ENDCHAR
STARTCHAR ecaron
ENCODING 236
SWIDTH 518 0
DWIDTH 5 0
BBX 4 7 1 0
BITMAP
70
00
30
50
e0
90
f0
ENDCHAR
STARTCHAR iacute
ENCODING 237
SWIDTH 289 0
DWIDTH 3 0
BBX 3 6 1 0
BITMAP
60
c0
40
40
80
c0
ENDCHAR
STARTCHAR icircumflex
ENCODING 238
SWIDTH 289 0
DWIDTH 3 0
BBX 3 6 1 0
BITMAP
e0
c0
40
40
80
c0
ENDCHAR
STARTCHAR dcaron
ENCODING 239
SWIDTH 900 0
DWIDTH 9 0
BBX 9 9 1 0
BITMAP
0180
0c80
0580
0800
3800
4800
8800
b800
f800
ENDCHAR
STARTCHAR dstroke
ENCODING 240
SWIDTH 800 0
DWIDTH 8 0
BBX 8 8 1 0
BITMAP
04
3f
08
38
48
88
b8
f8
ENDCHAR
STARTCHAR nacute
ENCODING 241
SWIDTH 631 0
DWIDTH 6 0
BBX 5 7 1 0
BITMAP
30
00
d8
68
48
90
98
ENDCHAR
STARTCHAR ncaron
ENCODING 242
SWIDTH 631 0
DWIDTH 6 0
BBX 5 7 1 0
BITMAP
70
00
d8
68
48
90
98
ENDCHAR
STARTCHAR oacute
ENCODING 243
SWIDTH 560 0
DWIDTH 6 0
BBX 5 6 1 0
BITMAP
18
30
48
88
90
e0
ENDCHAR
STARTCHAR ocircumflex
ENCODING 244
SWIDTH 560 0
DWIDTH 6 0
BBX 5 6 1 0
BITMAP
38
30
48
88
90
e0
ENDCHAR
STARTCHAR odoubleacute
ENCODING 245
SWIDTH 560 0
DWIDTH 6 0
BBX 5 7 1 0
BITMAP
70
00
30
48
88
90
e0
ENDCHAR
STARTCHAR odiaeresis
ENCODING 246
SWIDTH 560 0
DWIDTH 6 0
BBX 5 6 1 0
BITMAP
28
30
48
88
90
e0
ENDCHAR
STARTCHAR division
ENCODING 247
SWIDTH 608 0
DWIDTH 6 0
BBX 6 5 1 0
BITMAP
10
00
fc
00
20
ENDCHAR
STARTCHAR rcaron
ENCODING 248
SWIDTH 470 0
DWIDTH 5 0
BBX 5 7 1 0
BITMAP
70
00
d8
68
40
c0
80
ENDCHAR
STARTCHAR uring
ENCODING 249
SWIDTH 630 0
DWIDTH 6 0
BBX 5 8 1 0
BITMAP
30
30
00
d8
48
98
b0
f8
ENDCHAR
STARTCHAR uacute
ENCODING 250
SWIDTH 630 0
DWIDTH 6 0
BBX 5 6 1 0
BITMAP
18
d8
48
98
b0
f8
ENDCHAR
STARTCHAR udoubleacute
ENCODING 251
SWIDTH 630 0
DWIDTH 6 0
BBX 5 7 1 0
BITMAP
70
00
d8
48
98
b0
f8
ENDCHAR
STARTCHAR udiaeresis
ENCODING 252
SWIDTH 630 0
DWIDTH 6 0
BBX 5 6 1 0
BITMAP
28
d8
48
98
b0
f8
ENDCHAR
STARTCHAR yacute
ENCODING 253
SWIDTH 558 0
DWIDTH 6 0
BBX 6 8 0 -2
BITMAP
0c
44
24
2c
38
20
20
c0
ENDCHAR
STARTCHAR tcedilla
ENCODING 254
SWIDTH 355 0
DWIDTH 4 0
BBX 3 10 1 -2
BITMAP
40
40
40
e0
40
80
80
c0
20
60
ENDCHAR
STARTCHAR abovedot
ENCODING 255
SWIDTH 560 0
DWIDTH 6 0
BBX 1 1 4 7
BITMAP
80
ENDCHAR
ENDFONT
